:SAMPLES-PER-SECOND 30
:FULLY-SPECIFIED
:DEGREES
348
root  -19.0281 38.428 8.84851 -153.952 -79.7041 142.947
RightUpLeg  -6.95608 -3.83986 -14.184
RightLeg  57.8523 -5.83124 -10.2938
RightFoot  1.30686 -1.50887 13.7297
RightToes  -5.8209e-011 0 -3.6325e-017
Spine  5.07084 -0.281373 -10.6848
Spine1  5.10131 -2.82702 5.98923
HEad  6.02191 0.36845 -0.379617
LeftShoulder1  0.118897 7.26 13.2365
LeftArm  -58.3251 -28.7685 -20.1275
LeftForeArm  68.2406 -77.7087 -100.495
LeftHand  -1.04968 -1.14837 18.7034
RightShoulder  0.297761 -9.47034 -15.2151
RightArm  -59.4939 15.6887 16.7364
RightForeArm  84.0514 78.6614 97.5581
RightHand  -4.98838 10.1312 -36.3912
LeftUpLeg  -1.00301 2.34483 -7.83641
LeftLeg  26.7532 3.5349 2.29462
LeftFoot  -14.6297 0.0600654 -0.984886
LeftToes  6.82088e-011 -2.45093e-011 5.71991e-013
349
root  -19.9881 39.0991 8.86246 -162.396 -79.9583 151.154
RightUpLeg  -6.74243 -4.47029 -11.7488
RightLeg  49.4532 -9.05632 -11.4985
RightFoot  -1.06655 -1.35277 14.8621
RightToes  -5.8209e-011 0 -3.6325e-017
Spine  3.99952 -1.17748 -8.47155
Spine1  5.17918 -3.15128 4.88603
HEad  8.43975 -4.81822 -0.77477
LeftShoulder1  0.0122489 4.12728 12.7502
LeftArm  -49.7576 -34.6595 -22.4218
LeftForeArm  -8.63442 -65.0635 -27.279
LeftHand  -1.0798 -1.3139 18.7827
RightShoulder  0.197326 -8.06314 -14.5497
RightArm  -53.4521 22.994 18.3696
RightForeArm  13.769 68.1896 28.8403
RightHand  -4.79124 10.0922 -35.1353
LeftUpLeg  3.70641 1.87552 -6.62239
LeftLeg  21.2295 4.39392 2.15607
LeftFoot  -12.5046 0.0569769 -1.98202
LeftToes  6.82088e-011 -2.45093e-011 5.71991e-013
350
root  -20.7935 39.7021 8.80035 -166.853 -80.544 156.299
RightUpLeg  -7.10209 -5.4589 -9.23006
RightLeg  38.7117 -11.9173 -10.3594
RightFoot  -0.815614 -1.40776 15.1421
RightToes  -5.8209e-011 0 -3.6325e-017
Spine  3.63118 -2.10833 -8.26035
Spine1  3.87439 -3.99257 5.44862
HEad  9.14314 -9.40274 0.0378954
LeftShoulder1  -0.144169 0.434846 14.7663
LeftArm  -40.8335 -38.9998 -24.7299
LeftForeArm  -22.2332 -37.4887 -9.60241
LeftHand  -1.24337 -2.57105 18.2507
RightShoulder  0.158917 -6.20506 -16.2183
RightArm  -49.4382 27.3236 23.2069
RightForeArm  2.52203 50.5819 12.9272
RightHand  -4.63767 10.1978 -33.872
LeftUpLeg  6.32931 1.37293 -5.45289
LeftLeg  16.9075 4.70297 1.52282
LeftFoot  -8.98787 0.116108 -3.04196
LeftToes  6.82088e-011 -2.45093e-011 5.71991e-013
351
root  -21.4759 40.2052 8.66617 -165.641 -82.5034 156.943
RightUpLeg  -8.58498 -7.21088 -6.709
RightLeg  26.9654 -14.1051 -7.93582
RightFoot  0.551969 -1.37532 13.2014
RightToes  -5.8209e-011 0 -3.6325e-017
Spine  4.0436 -3.46983 -10.4488
Spine1  1.70168 -5.87833 9.08914
HEad  5.97999 -13.515 2.01405
LeftShoulder1  -0.474562 -3.30852 17.6424
LeftArm  -35.4058 -40.001 -27.6185
LeftForeArm  -6.33143 -12.4053 -6.37918
LeftHand  -1.4482 -3.98581 18.0801
RightShoulder  0.122863 -5.09447 -17.9594
RightArm  -47.7925 27.5881 30.7161
RightForeArm  8.74026 41.9615 9.36159
RightHand  -4.65784 10.3135 -33.7748
LeftUpLeg  6.57456 1.3403 -4.12244
LeftLeg  14.0401 3.18259 0.613532
LeftFoot  -5.41271 0.219255 -3.62399
LeftToes  6.82088e-011 -2.45093e-011 5.71991e-013
352
root  -22.1257 40.5247 8.50878 -161.568 -85.0282 154.979
RightUpLeg  -10.5536 -8.52605 -4.53515
RightLeg  16.6329 -18.3981 -5.79593
RightFoot  3.24308 -1.32779 10.5407
RightToes  -5.8209e-011 0 -3.6325e-017
Spine  5.06631 -4.97228 -13.2441
Spine1  0.100455 -8.30597 14.022
HEad  -0.758137 -17.0537 4.05354
LeftShoulder1  -0.74513 -6.46702 18.2895
LeftArm  -41.4906 -37.5188 -29.6387
LeftForeArm  30.2357 3.57399 -5.32526
LeftHand  -1.66375 -5.42264 18.0493
RightShoulder  0.0869263 -4.80519 -16.8587
RightArm  -46.2874 25.349 37.0699
RightForeArm  14.1766 43.8066 9.82253
RightHand  -4.5895 10.0951 -33.7465
LeftUpLeg  5.60397 1.3378 -2.98578
LeftLeg  12.9611 1.4006 0.172596
LeftFoot  -3.53798 0.294557 -4.01392
LeftToes  6.82088e-011 -2.45093e-011 5.71991e-013
353
root  -22.8741 40.6229 8.37107 -160.37 -85.8226 154.937
RightUpLeg  -11.9523 -7.13849 -3.38785
RightLeg  10.8441 -27.8501 -3.99693
RightFoot  7.54119 -1.24147 7.81328
RightToes  -5.8209e-011 0 -3.6325e-017
Spine  5.51923 -5.87098 -14.5884
Spine1  0.619076 -9.96368 16.7776
HEad  -8.50622 -19.7811 5.70438
LeftShoulder1  -0.560703 -8.87218 14.9057
LeftArm  -40.6519 -33.2054 -30.1969
LeftForeArm  51.3862 6.24896 -2.77594
LeftHand  -1.74405 -6.27867 17.5375
RightShoulder  0.0202503 -3.96024 -12.1476
RightArm  -42.9193 21.8912 39.9359
RightForeArm  13.003 50.6624 12.7788
RightHand  -4.25645 9.5514 -32.5138
LeftUpLeg  5.20943 1.43655 -2.61852
LeftLeg  13.4399 1.54103 0.368739
LeftFoot  -3.30956 0.331612 -4.4392
LeftToes  6.82088e-011 -2.45093e-011 5.71991e-013
354
root  -23.7884 40.534 8.25632 -164.413 -83.5521 158.778
RightUpLeg  -12.5727 -7.58294 -2.28716
RightLeg  11.0097 -34.9692 -3.91376
RightFoot  10.9253 -0.796856 4.40218
RightToes  -5.8209e-011 0 -3.6325e-017
Spine  4.77908 -5.74396 -14.3342
Spine1  3.2911 -10.0958 16.3085
HEad  -14.6782 -21.8333 7.20435
LeftShoulder1  0.141007 -10.0511 8.42751
LeftArm  -38.4763 -27.696 -29.613
LeftForeArm  50.6904 4.11829 -4.56586
LeftHand  -1.5328 -5.24951 16.9407
RightShoulder  0.0463389 -2.18635 -5.97411
RightArm  -38.6212 17.3331 41.2932
RightForeArm  10.7717 56.7677 16.4233
RightHand  -3.87239 9.02094 -30.7808
LeftUpLeg  6.37111 2.99182 -3.0976
LeftLeg  14.7395 2.88352 0.858196
LeftFoot  -3.83277 0.351648 -5.0111
LeftToes  6.82088e-011 -2.45093e-011 5.71991e-013
355
root  -24.8665 40.2075 8.11143 -165.191 -79.2349 158.471
RightUpLeg  -12.9032 -10.8326 -1.09244
RightLeg  16.2536 -33.7398 -6.996
RightFoot  9.48929 -0.182828 1.2869
RightToes  -5.8209e-011 0 -3.6325e-017
Spine  3.54878 -4.92535 -13.8476
Spine1  6.53389 -9.11566 14.3599
HEad  -18.5498 -23.9584 8.77733
LeftShoulder1  0.902531 -9.19884 1.45131
LeftArm  -33.0164 -21.2985 -30.5407
LeftForeArm  35.2383 -3.03115 -9.1408
LeftHand  -1.48245 -4.46189 17.6311
RightShoulder  0.220315 -0.731616 -0.443816
RightArm  -32.9703 11.6147 43.5145
RightForeArm  11.8097 59.8405 18.6317
RightHand  -3.59416 8.80533 -29.1002
LeftUpLeg  7.89485 7.52211 -3.77053
LeftLeg  18.0289 2.18825 1.00584
LeftFoot  -5.34266 0.349008 -6.10642
LeftToes  6.82088e-011 -2.45093e-011 5.71991e-013
356
root  -26.044 39.6904 7.93015 -166.711 -75.1151 158.984
RightUpLeg  -13.1755 -13.8775 0.1242
RightLeg  21.9174 -26.6128 -10.4233
RightFoot  2.96355 0.0999583 -0.622949
RightToes  -5.8209e-011 0 -3.6325e-017
Spine  2.49723 -4.18072 -13.0744
Spine1  8.94672 -8.04376 12.7832
HEad  -21.397 -27.0994 11.0099
LeftShoulder1  1.24325 -6.47177 -4.61552
LeftArm  -17.8157 -14.1118 -34.097
LeftForeArm  14.6811 -13.5424 -10.0765
LeftHand  -1.54503 -4.84762 17.6925
RightShoulder  0.37067 -0.453713 4.37378
RightArm  -24.9423 5.16407 45.8822
RightForeArm  13.9133 59.2033 17.9257
RightHand  -3.37696 8.7842 -27.4623
LeftUpLeg  7.82295 13.4512 -3.01035
LeftLeg  24.8671 -0.633483 -0.00911492
LeftFoot  -6.67141 0.367221 -8.07199
LeftToes  6.82088e-011 -2.45093e-011 5.71991e-013
357
root  -27.2045 39.1103 7.77677 -172.431 -71.9737 164.492
RightUpLeg  -13.4923 -12.0662 1.37323
RightLeg  26.9445 -22.5557 -12.2847
RightFoot  -4.72442 0.0234036 -0.792197
RightToes  -5.8209e-011 0 -3.6325e-017
Spine  2.05274 -3.82113 -10.4742
Spine1  9.92195 -7.28881 11.7322
HEad  -24.8681 -31.6648 14.6794
LeftShoulder1  1.18154 -3.23677 -10.2419
LeftArm  3.76982 -6.00452 -38.467
LeftForeArm  -3.98213 -23.6398 -5.15924
LeftHand  -1.37665 -4.76036 15.955
RightShoulder  0.411602 -1.00166 9.20942
RightArm  -15.6042 -0.916513 47.0793
RightForeArm  14.4407 53.4735 14.1859
RightHand  -3.12329 8.69449 -25.6484
LeftUpLeg  5.01439 18.3132 -0.0434058
LeftLeg  35.4671 -2.88521 -1.8225
LeftFoot  -4.36504 0.717302 -11.0656
LeftToes  6.82088e-011 -2.45093e-011 5.71991e-013
